<?xml version="1.0" encoding="utf-8"?>
<!-- Generator: Adobe Illustrator 16.0.0, SVG Export Plug-In . SVG Version: 6.00 Build 0)  -->
<!DOCTYPE svg PUBLIC "-//W3C//DTD SVG 1.1//EN" "http://www.w3.org/Graphics/SVG/1.1/DTD/svg11.dtd">
<svg version="1.1" id="Layer_1" xmlns="http://www.w3.org/2000/svg" xmlns:xlink="http://www.w3.org/1999/xlink" x="0px" y="0px"
	 width="14.996px" height="11.229px" viewBox="4.502 6.396 14.996 11.229" enable-background="new 4.502 6.396 14.996 11.229"
	 xml:space="preserve">
<path fill="#FFFFFF" d="M19.229,8.02l-1.315-1.259c-0.183-0.173-0.399-0.26-0.658-0.26c-0.258,0-0.478,0.087-0.657,0.26
	l-6.348,6.082l-2.845-2.731c-0.181-0.173-0.4-0.259-0.658-0.259S6.27,9.938,6.088,10.111L4.772,11.37
	c-0.18,0.173-0.27,0.383-0.27,0.63s0.09,0.457,0.271,0.63l3.503,3.351l1.315,1.261c0.181,0.172,0.399,0.258,0.658,0.258
	c0.258,0,0.478-0.086,0.657-0.258l1.316-1.261l7.004-6.702c0.182-0.173,0.271-0.382,0.271-0.63
	C19.498,8.402,19.408,8.192,19.229,8.02z"/>
</svg>
